<svg xmlns="http://www.w3.org/2000/svg" width="39" height="39" viewBox="0 0 39 39">
  <defs>
    <style>
      .cls-1 {
        fill: #4ab878;
        fill-rule: evenodd;
      }
    </style>
  </defs>
  <path class="cls-1" d="M19.031,37.034a18,18,0,1,1,18-18A18.023,18.023,0,0,1,19.031,37.034Zm0-32.283a14.28,14.28,0,1,0,14.28,14.28A14.3,14.3,0,0,0,19.031,4.751Zm0,25.318A11.038,11.038,0,1,1,30.069,19.031,11.051,11.051,0,0,1,19.031,30.069Zm0-18.571a7.534,7.534,0,1,0,7.534,7.534A7.542,7.542,0,0,0,19.031,11.5Zm0,11.825a4.291,4.291,0,1,1,4.291-4.291A4.3,4.3,0,0,1,19.031,23.323Z"/>
</svg>
