<svg xmlns="http://www.w3.org/2000/svg" style="display: none;"><symbol id="avatar" viewBox="0 0 482.9 482.9"><title>avatar</title><path d="M239.7,260.2c0.5,0,1,0,1.6,0c0.2,0,0.4,0,0.6,0c0.3,0,0.7,0,1,0c29.3-0.5,53-10.8,70.5-30.5 c38.5-43.4,32.1-117.8,31.4-124.9c-2.5-53.3-27.7-78.8-48.5-90.7C280.8,5.2,262.7,0.4,242.5,0h-0.7c-0.1,0-0.3,0-0.4,0h-0.6 c-11.1,0-32.9,1.8-53.8,13.7c-21,11.9-46.6,37.4-49.1,91.1c-0.7,7.1-7.1,81.5,31.4,124.9C186.7,249.4,210.4,259.7,239.7,260.2z M164.6,107.3c0-0.3,0.1-0.6,0.1-0.8c3.3-71.7,54.2-79.4,76-79.4h0.4c0.2,0,0.5,0,0.8,0c27,0.6,72.9,11.6,76,79.4 c0,0.3,0,0.6,0.1,0.8c0.1,0.7,7.1,68.7-24.7,104.5c-12.6,14.2-29.4,21.2-51.5,21.4c-0.2,0-0.3,0-0.5,0l0,0c-0.2,0-0.3,0-0.5,0 c-22-0.2-38.9-7.2-51.4-21.4C157.7,176.2,164.5,107.9,164.6,107.3z"/><path d="M446.8,383.6c0-0.1,0-0.2,0-0.3c0-0.8-0.1-1.6-0.1-2.5c-0.6-19.8-1.9-66.1-45.3-80.9c-0.3-0.1-0.7-0.2-1-0.3 c-45.1-11.5-82.6-37.5-83-37.8c-6.1-4.3-14.5-2.8-18.8,3.3c-4.3,6.1-2.8,14.5,3.3,18.8c1.7,1.2,41.5,28.9,91.3,41.7 c23.3,8.3,25.9,33.2,26.6,56c0,0.9,0,1.7,0.1,2.5c0.1,9-0.5,22.9-2.1,30.9c-16.2,9.2-79.7,41-176.3,41 c-96.2,0-160.1-31.9-176.4-41.1c-1.6-8-2.3-21.9-2.1-30.9c0-0.8,0.1-1.6,0.1-2.5c0.7-22.8,3.3-47.7,26.6-56 c49.8-12.8,89.6-40.6,91.3-41.7c6.1-4.3,7.6-12.7,3.3-18.8c-4.3-6.1-12.7-7.6-18.8-3.3c-0.4,0.3-37.7,26.3-83,37.8 c-0.4,0.1-0.7,0.2-1,0.3c-43.4,14.9-44.7,61.2-45.3,80.9c0,0.9,0,1.7-0.1,2.5c0,0.1,0,0.2,0,0.3c-0.1,5.2-0.2,31.9,5.1,45.3 c1,2.6,2.8,4.8,5.2,6.3c3,2,74.9,47.8,195.2,47.8s192.2-45.9,195.2-47.8c2.3-1.5,4.2-3.7,5.2-6.3 C447,415.5,446.9,388.8,446.8,383.6z"/></symbol><symbol id="farmer" viewBox="0 0 470 470"><title>farmer</title><path d="M403.204,336.001c-0.46-0.485-0.984-0.907-1.558-1.256c-12.934-10.356-27.465-18.792-43.163-24.872 c-0.406-0.199-0.832-0.363-1.276-0.486c-16.135-6.094-33.475-9.705-51.556-10.369c-1.362-1.89-3.576-3.125-6.083-3.125 s-4.722,1.235-6.083,3.125c-18.082,0.665-35.422,4.275-51.556,10.369c-0.445,0.124-0.872,0.288-1.279,0.487 c-15.697,6.081-30.228,14.516-43.161,24.871c-0.575,0.349-1.099,0.771-1.56,1.257c-36.586,30.029-59.967,75.583-59.967,126.498 c0,4.143,3.357,7.5,7.5,7.5s7.5-3.357,7.5-7.5c0-40.628,16.395-77.495,42.908-104.348v102.727c0,0.557,0.065,1.099,0.18,1.621 c0.741,3.362,3.734,5.879,7.32,5.879s6.578-2.517,7.32-5.879c0.115-0.522,0.18-1.064,0.18-1.621V344.867 c8.509-6.575,17.746-12.249,27.57-16.878v63.088c0,4.143,3.357,7.5,7.5,7.5h111.255c4.143,0,7.5-3.357,7.5-7.5v-63.088 c9.824,4.629,19.062,10.302,27.57,16.878v116.012c0,0.557,0.065,1.099,0.18,1.621c0.741,3.362,3.734,5.879,7.32,5.879 s6.578-2.517,7.32-5.879c0.115-0.522,0.18-1.064,0.18-1.621V358.151c26.514,26.853,42.908,63.72,42.908,104.349 c0,4.143,3.357,7.5,7.5,7.5s7.5-3.357,7.5-7.5C463.172,411.585,439.79,366.031,403.204,336.001z M251.438,383.577v-61.68 c12.845-4.409,26.478-7.108,40.628-7.815v19.313c0,4.143,3.357,7.5,7.5,7.5s7.5-3.357,7.5-7.5v-19.313 c14.149,0.707,27.782,3.406,40.627,7.814v61.681H251.438z"/><path d="M157.678,143.304V7.5c0-4.143-3.357-7.5-7.5-7.5s-7.5,3.357-7.5,7.5v128.304h-30.283V7.5c0-4.143-3.357-7.5-7.5-7.5 s-7.5,3.357-7.5,7.5v128.304H67.111V7.5c0-4.143-3.357-7.5-7.5-7.5s-7.5,3.357-7.5,7.5v128.304H21.828V7.5 c0-4.143-3.357-7.5-7.5-7.5s-7.5,3.357-7.5,7.5v135.804c0,21.384,17.396,38.78,38.78,38.78h29.145V462.5c0,4.143,3.357,7.5,7.5,7.5 s7.5-3.357,7.5-7.5V182.084h29.145C140.281,182.084,157.678,164.688,157.678,143.304z M23.047,150.804h118.412 c-3.149,9.447-12.07,16.28-22.561,16.28H45.608C35.117,167.084,26.196,160.251,23.047,150.804z"/><path d="M180.893,182.084h33.527c-0.265,2.752-0.407,5.521-0.407,8.291c0,47.175,38.379,85.554,85.554,85.554 c47.174,0,85.553-38.379,85.553-85.554c0-2.77-0.143-5.539-0.408-8.291h33.248c4.143,0,7.5-3.357,7.5-7.5s-3.357-7.5-7.5-7.5 h-36.028l-17.409-72.345c-1.72-7.146-6.124-13.07-12.4-16.68c-6.278-3.609-13.61-4.437-20.655-2.328l-31.107,9.313l-31.106-9.313 c-7.021-2.104-14.37-1.294-20.691,2.278c-6.322,3.571-10.808,9.446-12.631,16.545l-18.632,72.529h-36.405 c-4.143,0-7.5,3.357-7.5,7.5S176.75,182.084,180.893,182.084z M255.938,91.069c2.734-1.545,5.934-1.89,9.011-0.969l33.258,9.958 c1.404,0.42,2.898,0.42,4.303,0l33.259-9.958c3.055-0.914,6.207-0.572,8.874,0.962c2.669,1.535,4.549,4.087,5.295,7.187 l16.565,68.835H232.784l17.673-68.797C251.256,95.178,253.202,92.615,255.938,91.069z M370.119,190.375 c0,38.903-31.649,70.554-70.553,70.554s-70.554-31.65-70.554-70.554c0-2.776,0.181-5.545,0.502-8.291h140.103 C369.938,184.831,370.119,187.601,370.119,190.375z"/><path d="M355.19,413.58h-61.25c-4.143,0-7.5,3.357-7.5,7.5s3.357,7.5,7.5,7.5h61.25c4.143,0,7.5-3.357,7.5-7.5 S359.333,413.58,355.19,413.58z"/><path d="M263.94,413.58h-20c-4.143,0-7.5,3.357-7.5,7.5s3.357,7.5,7.5,7.5h20c4.143,0,7.5-3.357,7.5-7.5 S268.083,413.58,263.94,413.58z"/></symbol></svg>